<svg xmlns="http://www.w3.org/2000/svg" xmlns:xlink="http://www.w3.org/1999/xlink" fill="none" version="1.1"
     width="105.4505615234375" height="100.39990234375" viewBox="0 0 105.4505615234375 100.39990234375">
  <defs>
    <mask id="master_svg0_506_19677" style="mask-type:alpha" maskUnits="objectBoundingBox">
      <g>
        <g>
          <g>
            <path d="M27,14.91015625L31.9400001,14.91015625L31.9400001,22.35015675L27,22.35015675L27,14.91015625Z"
                  fill-rule="evenodd" fill="#FFFFFF" fill-opacity="1" style="mix-blend-mode:passthrough"/>
          </g>
        </g>
      </g>
    </mask>
    <mask id="master_svg1_506_19696" style="mask-type:alpha" maskUnits="objectBoundingBox">
      <g>
        <g>
          <g>
            <path
              d="M81.71002197265625,9.89013671875L105.45001997265625,9.89013671875L105.45001997265625,24.62013671875L81.71002197265625,24.62013671875L81.71002197265625,9.89013671875Z"
              fill-rule="evenodd" fill="#FFFFFF" fill-opacity="1" style="mix-blend-mode:passthrough"/>
          </g>
        </g>
      </g>
    </mask>
    <mask id="master_svg2_506_19751" style="mask-type:alpha" maskUnits="objectBoundingBox">
      <g>
        <path d="M0,0L16.234575,0L16.234575,14.88779L0,14.88779L0,0Z" fill-rule="evenodd" fill="#FFFFFF"
              fill-opacity="1"/>
      </g>
    </mask>
    <mask id="master_svg3_506_19755" style="mask-type:alpha" maskUnits="objectBoundingBox">
      <g>
        <path
          d="M5.942330837249756,11.857353210449219L21.999999837249756,11.857353210449219L21.999999837249756,26.399999210449216L5.942330837249756,26.399999210449216L5.942330837249756,11.857353210449219Z"
          fill-rule="evenodd" fill="#FFFFFF" fill-opacity="1"/>
      </g>
    </mask>
  </defs>
  <g>
    <g transform="translate(15, 0) scale(3.5)">
      <g>
        <g mask="url(#master_svg2_506_19751)">
          <g>
            <path
              d="M15.950225258270594,1.1682618741691588C16.465417258270595,0.669270694169159,16.123101258270594,0.2610660241691589,16.123101258270594,0.2610660241691589C16.123101258270594,0.2610660241691589,15.914138258270595,-0.19486823583084106,15.126404258270595,0.09818469016915894C12.551832258270595,1.0521088741691589,8.507650858270594,2.914563574169159,4.919541858270595,6.471251674169159C2.0762057582705946,9.28896497416916,0.7829054682705947,12.15674557416916,0.10790108827059476,13.974807574169159C0.10790108827059476,13.97747657416916,-0.2605330517294052,14.51017957416916,0.36360538827059474,14.846289574169159C0.6182786282705948,14.98213557416916,1.0506387582705947,14.755837574169158,1.3101239582705948,14.578604574169159C2.317474858270595,13.884688574169159,3.4667694582705946,13.20812957416916,5.115443758270595,12.809272574169158C6.395339958270594,12.49919657416916,7.4714288582705946,12.440785574169158,8.301093558270594,12.41508557416916C9.580990358270595,12.371361574169159,10.003726258270595,11.95581357416916,10.003726258270595,11.95581357416916C10.003726258270595,11.95581357416916,10.458770258270595,11.63372157416916,10.742313258270595,10.61771757416916C11.070193258270594,9.450845374169159,11.504614258270594,7.955874174169159,12.558019258270594,5.922861274169159C13.620705258270595,3.859809374169159,14.847674258270596,2.239006474169159,15.950225258270594,1.1682618741691588L15.950225258270594,1.1682618741691588Z"
              fill-rule="evenodd" fill="white" fill-opacity="1"/>
          </g>
        </g>
      </g>
      <g>
        <g mask="url(#master_svg3_506_19755)">
          <g>
            <path
              d="M6.153334067249756,25.361655210449218C5.733500957249756,25.80545321044922,6.069838787249756,26.22274921044922,6.069838787249756,26.22274921044922C6.069838787249756,26.22274921044922,6.377895947249756,26.504930210449217,6.795709017249756,26.357214210449218C9.331541537249755,25.464443210449218,13.756791637249755,23.57255921044922,17.277733837249755,19.947501210449218C19.993685837249757,17.15379861044922,21.290891837249756,14.50910571044922,21.932258837249755,12.738758090449219C22.145373837249757,12.142716380449219,21.788835837249756,11.975281640449218,21.78277583724976,11.974311930449218C21.78277583724976,11.974311930449218,21.444753837249756,11.672089020449219,20.89227183724976,12.039281790449218C19.898408837249754,12.69576812044922,18.697152837249757,13.366799910449219,17.083471837249753,13.75306331044922C15.827002037249756,14.053993010449219,15.115608737249756,14.176822210449219,14.302876937249756,14.202033710449218C13.049774637249756,14.244054510449219,12.601661237249756,14.54466081044922,12.601661237249756,14.54466081044922C12.601661237249756,14.54466081044922,11.911478037249756,14.841388910449218,11.633721837249755,15.824017810449218C11.312534837249757,16.95565651044922,10.759714637249756,18.42959831044922,9.728143937249756,20.397441910449217C8.683442837249757,22.396313210449218,7.180191137249755,24.27753121044922,6.153334067249756,25.361655210449218L6.153334067249756,25.361655210449218Z"
              fill-rule="evenodd" fill="white" fill-opacity="1"/>
          </g>
        </g>
      </g>
    </g>
  </g>
</svg>
